HIERARCHY
ROOT Hips
{
 OFFSET 0.000000 0.000000 0.000000
 CHANNELS 6 Xposition Yposition Zposition Yrotation Xrotation Zrotation
 JOINT Chest
 {
  OFFSET 0.000000 9.588913 -0.003946
  CHANNELS 3 Yrotation Xrotation Zrotation
  JOINT Chest2
  {
   OFFSET 0.000000 9.541882 0.008053
   CHANNELS 3 Yrotation Xrotation Zrotation
   JOINT Chest3
   {
    OFFSET 0.000000 9.501360 0.000000
    CHANNELS 3 Yrotation Xrotation Zrotation
    JOINT Chest4
    {
     OFFSET 0.000000 9.491660 0.000000
     CHANNELS 3 Yrotation Xrotation Zrotation
     JOINT Neck
     {
      OFFSET 0.000000 14.331917 0.000000
      CHANNELS 3 Yrotation Xrotation Zrotation
      JOINT Head
      {
       OFFSET 0.000000 8.884799 0.017034
       CHANNELS 3 Yrotation Xrotation Zrotation
       End Site
       {
        OFFSET 0.000000 16.896195 0.008993
       }
      }
     }
     JOINT RightCollar
     {
      OFFSET -2.923010 9.499495 0.000000
      CHANNELS 3 Yrotation Xrotation Zrotation
      JOINT RightShoulder
      {
       OFFSET -13.795216 0.000000 0.000000
       CHANNELS 3 Yrotation Xrotation Zrotation
       JOINT RightElbow
       {
        OFFSET -30.272209 0.000000 0.000000
        CHANNELS 3 Yrotation Xrotation Zrotation
        JOINT RightWrist
        {
         OFFSET -24.478199 0.000000 0.000000
         CHANNELS 3 Yrotation Xrotation Zrotation
         End Site
         {
          OFFSET -18.090752 0.000000 0.000000
         }
        }
       }
      }
     }
     JOINT LeftCollar
     {
      OFFSET 2.923010 9.499495 0.000000
      CHANNELS 3 Yrotation Xrotation Zrotation
      JOINT LeftShoulder
      {
       OFFSET 13.795216 0.000000 0.000000
       CHANNELS 3 Yrotation Xrotation Zrotation
       JOINT LeftElbow
       {
        OFFSET 30.272209 0.000000 0.000000
        CHANNELS 3 Yrotation Xrotation Zrotation
        JOINT LeftWrist
        {
         OFFSET 24.478199 0.000000 0.000000
         CHANNELS 3 Yrotation Xrotation Zrotation
         End Site
         {
          OFFSET 18.090752 0.000000 0.000000
         }
        }
       }
      }
     }
    }
   }
  }
 }
 JOINT RightHip
 {
  OFFSET -7.826875 0.019532 0.001973
  CHANNELS 3 Yrotation Xrotation Zrotation
  JOINT RightKnee
  {
   OFFSET 0.000000 -40.546152 -0.001885
   CHANNELS 3 Yrotation Xrotation Zrotation
   JOINT RightAnkle
   {
    OFFSET 0.000000 -39.417092 -0.003189
    CHANNELS 3 Yrotation Xrotation Zrotation
    JOINT RightToe
    {
     OFFSET 0.000000 -7.579396 17.243563
     CHANNELS 3 Yrotation Xrotation Zrotation
     End Site
     {
      OFFSET 0.000000 -1.500329 6.694466
     }
    }
   }
  }
 }
 JOINT LeftHip
 {
  OFFSET 7.826875 0.019532 0.001973
  CHANNELS 3 Yrotation Xrotation Zrotation
  JOINT LeftKnee
  {
   OFFSET 0.000000 -40.546152 -0.001885
   CHANNELS 3 Yrotation Xrotation Zrotation
   JOINT LeftAnkle
   {
    OFFSET 0.000000 -39.417092 -0.003189
    CHANNELS 3 Yrotation Xrotation Zrotation
    JOINT LeftToe
    {
     OFFSET 0.000000 -7.579396 17.243563
     CHANNELS 3 Yrotation Xrotation Zrotation
     End Site
     {
      OFFSET 0.000000 -1.500329 6.694466
     }
    }
   }
  }
 }
}
MOTION
Frames: 12
Frame Time: 0.008333
-75.541482 87.966284 76.707840 -45.817520 -3.086125 0.258441 4.865500 3.561042 0.796062 2.699357 1.918955 -0.163076 3.373815 2.399727 -0.189722 2.699357 1.918955 -0.163076 -19.553661 24.442631 2.086104 -23.754663 3.195947 6.973321 -6.337022 -4.679348 -5.327493 -14.409802 -30.565606 55.291272 42.702473 -1.167291 -7.810953 -26.084151 -3.406498 -5.068948 -13.377047 0.728036 1.525345 5.765411 0.162925 -87.478859 -4.358312 -4.535992 -4.679569 -1.566820 -5.154604 6.080424 6.809652 10.781073 2.461936 -7.566402 -1.186436 1.640197 -2.139807 -5.704864 -2.590176 -0.024156 1.373276 -0.013130 10.693622 9.482354 13.450418 7.211346 11.381823 3.257959 -0.220079 -7.308207 -12.951691 -0.452203 -1.408323 -0.169745
-75.581963 87.955768 76.703262 -45.843477 -3.029994 0.263070 4.876220 3.546161 0.802547 2.705470 1.909852 -0.160646 3.381470 2.388333 -0.186719 2.705470 1.909852 -0.160646 -19.493210 24.399638 2.093833 -23.674995 3.127622 6.969481 -6.391280 -4.633876 -5.315931 -14.771549 -30.375299 55.397774 43.799459 -1.002981 -7.909549 -26.341194 -3.368766 -4.921147 -13.389925 0.709394 1.552180 5.780715 0.176926 -87.484022 -4.369433 -4.564954 -4.692538 -1.535180 -5.161781 6.058786 6.821016 10.772443 2.473127 -7.581754 -1.243415 1.650526 -2.119541 -5.717593 -2.615592 -0.023598 1.377499 -0.013340 10.696556 9.445193 13.459049 7.215021 11.387982 3.258607 -0.206788 -7.311128 -12.980701 -0.456560 -1.408544 -0.176540
-75.624106 87.943888 76.698469 -45.859839 -2.971324 0.268466 4.883976 3.529722 0.809381 2.710626 1.900630 -0.158613 3.387926 2.376793 -0.184220 2.710626 1.900630 -0.158613 -19.431580 24.350401 2.100806 -23.593543 3.050988 6.964638 -6.453642 -4.597945 -5.303857 -15.156241 -30.176078 55.521739 44.933865 -0.869418 -8.007899 -26.591749 -3.328184 -4.806255 -13.410409 0.692711 1.576894 5.797858 0.189810 -87.483456 -4.378490 -4.601656 -4.711783 -1.518104 -5.175689 6.044160 6.827670 10.761603 2.480807 -7.599091 -1.296112 1.667493 -2.099942 -5.737889 -2.644883 -0.024056 1.384868 -0.013517 10.696938 9.400973 13.467251 7.207381 11.399453 3.262664 -0.194300 -7.318743 -13.013364 -0.457828 -1.408343 -0.181590
-75.668319 87.930948 76.693872 -45.863765 -2.911422 0.276100 4.886783 3.512116 0.814706 2.713140 1.891066 -0.156798 3.391078 2.364826 -0.182007 2.713140 1.891066 -0.156798 -19.367248 24.297105 2.105750 -23.507887 2.968376 6.956823 -6.518824 -4.568195 -5.290658 -15.562048 -29.967046 55.668416 46.099757 -0.768599 -8.116670 -26.831719 -3.294357 -4.730410 -13.429955 0.678680 1.596397 5.809570 0.201160 -87.473374 -4.386012 -4.643311 -4.735574 -1.515854 -5.190441 6.035344 6.824635 10.752294 2.484666 -7.618668 -1.348143 1.689822 -2.080422 -5.763628 -2.678945 -0.024459 1.394162 -0.012756 10.687029 9.352983 13.474218 7.196950 11.415270 3.265996 -0.182645 -7.329377 -13.044617 -0.458331 -1.407357 -0.186991
-75.715371 87.917288 76.690252 -45.855902 -2.855136 0.287703 4.885355 3.495662 0.817924 2.712789 1.881519 -0.155304 3.390647 2.352882 -0.180212 2.712789 1.881519 -0.155304 -19.299687 24.241535 2.108399 -23.417260 2.881954 6.945529 -6.586878 -4.542640 -5.276631 -15.986813 -29.742797 55.842211 47.285866 -0.681882 -8.237005 -27.057022 -3.279839 -4.693078 -13.447699 0.668259 1.610965 5.816726 0.212861 -87.454889 -4.394798 -4.684670 -4.759697 -1.517342 -5.200284 6.025983 6.811736 10.749864 2.485328 -7.638732 -1.399454 1.713973 -2.062046 -5.794754 -2.715852 -0.024771 1.404537 -0.011377 10.663038 9.308097 13.479457 7.191424 11.435378 3.265354 -0.171260 -7.341337 -13.069561 -0.460500 -1.406386 -0.194988
-75.765355 87.903172 76.687912 -45.840081 -2.803154 0.305448 4.881395 3.480985 0.819754 2.710893 1.872739 -0.155033 3.388276 2.341906 -0.179948 2.710893 1.872739 -0.155033 -19.228914 24.184233 2.109496 -23.321923 2.792539 6.931622 -6.659500 -4.521203 -5.259127 -16.433092 -29.505216 56.040728 48.490308 -0.581996 -8.357615 -27.267155 -3.275074 -4.689513 -13.464934 0.658499 1.623208 5.821071 0.226177 -87.432796 -4.404943 -4.719650 -4.778397 -1.516042 -5.204012 6.014416 6.788077 10.752983 2.482423 -7.653583 -1.446207 1.733970 -2.045429 -5.833472 -2.751615 -0.025149 1.416355 -0.010095 10.627762 9.268510 13.480386 7.193850 11.458186 3.263174 -0.163352 -7.351767 -13.090363 -0.462944 -1.407764 -0.204439
-75.818482 87.888780 76.686502 -45.822228 -2.754766 0.327387 4.877437 3.468427 0.821195 2.708969 1.865456 -0.155869 3.385866 2.332808 -0.181058 2.708968 1.865456 -0.155869 -19.155735 24.125549 2.110285 -23.223347 2.700929 6.916766 -6.737258 -4.497368 -5.235042 -16.907070 -29.267336 56.259990 49.711284 -0.442576 -8.460460 -27.467341 -3.262698 -4.710618 -13.479866 0.645026 1.634432 5.818900 0.241435 -87.410022 -4.415555 -4.749193 -4.789719 -1.513841 -5.201795 6.005654 6.758591 10.759401 2.478708 -7.661099 -1.487601 1.748531 -2.031489 -5.878383 -2.785795 -0.024955 1.428583 -0.008988 10.589910 9.233397 13.478730 7.203973 11.482412 3.262864 -0.160587 -7.359373 -13.112116 -0.465270 -1.412235 -0.212893
-75.875634 87.874254 76.685736 -45.811529 -2.713202 0.348005 4.876322 3.459475 0.824321 2.708183 1.859930 -0.156282 3.384882 2.325904 -0.181619 2.708183 1.859930 -0.156282 -19.081195 24.066535 2.110221 -23.122790 2.608652 6.900531 -6.819104 -4.466734 -5.206039 -17.399200 -29.029866 56.492255 50.943708 -0.251700 -8.537658 -27.655979 -3.241913 -4.751301 -13.486529 0.629278 1.642472 5.809026 0.254043 -87.387012 -4.423322 -4.772501 -4.791770 -1.510553 -5.196996 5.999629 6.740846 10.773203 2.481582 -7.666054 -1.529125 1.759866 -2.021619 -5.923034 -2.821334 -0.023887 1.439169 -0.007109 10.564798 9.206053 13.483134 7.214820 11.506216 3.262382 -0.159671 -7.364785 -13.135056 -0.469521 -1.418818 -0.220585
-75.937203 87.859679 76.685623 -45.810751 -2.681448 0.363668 4.877586 3.453310 0.831625 2.708456 1.856022 -0.155367 3.385227 2.321013 -0.180502 2.708456 1.856022 -0.155367 -19.005190 24.008414 2.107653 -23.019634 2.517062 6.880887 -6.903929 -4.431599 -5.175392 -17.886577 -28.775445 56.723578 52.176850 -0.014310 -8.599684 -27.831333 -3.216306 -4.805232 -13.481534 0.616313 1.646002 5.797438 0.258684 -87.365598 -4.423529 -4.785326 -4.781845 -1.503077 -5.189940 5.993065 6.747409 10.801415 2.497497 -7.670916 -1.581409 1.767453 -2.020118 -5.959591 -2.859401 -0.022844 1.447138 -0.003706 10.557465 9.188543 13.499040 7.220751 11.530504 3.261214 -0.159454 -7.369129 -13.160682 -0.474431 -1.427782 -0.227095
-76.002319 87.845086 76.686341 -45.811464 -2.658186 0.375609 4.877087 3.446613 0.841659 2.708305 1.852947 -0.153490 3.385048 2.317156 -0.178179 2.708305 1.852947 -0.153490 -18.926553 23.952728 2.102336 -22.912252 2.427849 6.857208 -6.991824 -4.392622 -5.144113 -18.353780 -28.488463 56.946596 53.398216 0.254918 -8.664585 -27.987421 -3.186490 -4.862603 -13.471560 0.609051 1.645541 5.793923 0.259500 -87.343797 -4.417465 -4.790396 -4.766400 -1.491359 -5.180701 5.990447 6.775035 10.844417 2.523666 -7.677707 -1.646520 1.773878 -2.029273 -5.987482 -2.899964 -0.022720 1.453369 0.000325 10.554396 9.177770 13.522433 7.227120 11.558991 3.261184 -0.160586 -7.373480 -13.188913 -0.480095 -1.439054 -0.232720
-76.069814 87.830489 76.687606 -45.808596 -2.638912 0.384541 4.872419 3.437632 0.851750 2.706778 1.849632 -0.151075 3.383151 2.312993 -0.175192 2.706778 1.849632 -0.151075 -18.843317 23.900614 2.095772 -22.798474 2.342220 6.830767 -7.082000 -4.355562 -5.114506 -18.802627 -28.159295 57.166387 54.603167 0.539394 -8.728613 -28.111915 -3.155725 -4.926623 -13.462263 0.605876 1.642043 5.804494 0.263041 -87.317362 -4.408952 -4.794685 -4.752221 -1.477759 -5.172094 5.993967 6.813045 10.895262 2.554089 -7.692933 -1.717937 1.785036 -2.039255 -6.010106 -2.942147 -0.023276 1.458466 0.002367 10.545042 9.169968 13.548708 7.238807 11.590668 3.264557 -0.161880 -7.378006 -13.220676 -0.487076 -1.451099 -0.237307
-76.139097 87.815935 76.689001 -45.802755 -2.620871 0.389235 4.865308 3.427944 0.861739 2.704145 1.845871 -0.148312 3.379872 2.308272 -0.171779 2.704145 1.845871 -0.148312 -18.755899 23.851458 2.089392 -22.679300 2.259656 6.803388 -7.174913 -4.333144 -5.091325 -19.247274 -27.778140 57.392934 55.799126 0.824091 -8.771167 -28.198329 -3.133464 -5.015640 -13.453471 0.602878 1.639324 5.826150 0.270092 -87.290982 -4.396561 -4.802878 -4.735208 -1.465575 -5.164861 5.998649 6.847007 10.951086 2.586293 -7.718886 -1.794953 1.803778 -2.037469 -6.026575 -2.985321 -0.024082 1.461582 0.001175 10.530222 9.163075 13.577081 7.254768 11.622812 3.275361 -0.165192 -7.382550 -13.260353 -0.492389 -1.463160 -0.239328
